<?xml version="1.0"?>
<svg xmlns="http://www.w3.org/2000/svg" viewBox="0 0 24 24">
    <path d="M 2 2 L 7.21875 9.96875 L 2 18 L 4.34375 18 L 8.46875 11.8125 L 12.5625 18 L 15 18 L 9.6875 9.96875 L 15 2 L 12.5 2 L 8.46875 8.125 L 4.40625 2 L 2 2 z M 19 14 C 17.346 14 16 15.346 16 17 L 18 17 C 18 16.448 18.448 16 19 16 C 19.552 16 20 16.461 20 17 C 19.994 17.471 18.649 18.329 18 18.75 C 16.874 19.482 15.979 20.07625 16 21.03125 L 16.03125 22 L 22 22 L 22 20 L 19.75 20 C 20.871 19.237 21.985 18.296 22 17 C 22 15.346 20.654 14 19 14 z"/>
</svg>
