<?xml version="1.0"?>
<svg xmlns="http://www.w3.org/2000/svg" viewBox="0 0 24 24">
    <path d="M 19 2 C 17.346 2 16 3.346 16 5 L 18 5 C 18 4.448 18.448 4 19 4 C 19.552 4 20 4.46 20 5 C 19.994 5.471 18.65 6.33 18 6.75 C 16.874 7.482 15.979 8.07625 16 9.03125 L 16.03125 10 L 22 10 L 22 8 L 19.75 8 C 20.871 7.237 21.985 6.296 22 5 C 22 3.346 20.654 2 19 2 z M 2 6 L 7.21875 13.96875 L 2 22 L 4.34375 22 L 8.46875 15.8125 L 12.5625 22 L 15 22 L 9.6875 13.96875 L 15 6 L 12.5 6 L 8.46875 12.125 L 4.40625 6 L 2 6 z"/>
</svg>
