<?xml version="1.0"?>
<svg xmlns="http://www.w3.org/2000/svg" version="1" viewBox="0 0 24 24" enable-background="new 0 0 24 24">
    <path d="M 6.09375 3 L 6.09375 12.6875 C 6.09375 14.3875 6.5875 15.69375 7.6875 16.59375 C 8.7875 17.49375 10.2 18 12 18 C 13.7 18 15.1875 17.49375 16.1875 16.59375 C 17.2875 15.69375 17.90625 14.3875 17.90625 12.6875 L 17.90625 3 L 15 3 L 15 12.6875 C 15 13.6875 14.6875 14.5 14.1875 15 C 13.5875 15.5 12.9 15.8125 12 15.8125 C 11.1 15.8125 10.40625 15.5 9.90625 15 C 9.40625 14.4 9.09375 13.6875 9.09375 12.6875 L 9.09375 3 L 6.09375 3 z M 6 20 L 6 22 L 18 22 L 18 20 L 6 20 z"/>
</svg>
